<svg width="55" height="24" viewBox="0 0 55 24" fill="none" xmlns="http://www.w3.org/2000/svg">
<path d="M15.0482 1C14.0265 16.9937 14.6225 20.9922 15.0482 20.9922H23.988M48.253 1.64491C45.0602 2.07485 39.3133 1 42.506 11.9635C44.4217 17.1227 51.4458 15.188 51.4458 10.0287C51.4458 4.22455 51.4458 4.22455 48.253 1.64491ZM48.253 1.64491C54 2.93473 54 6.80418 54 11.9635C54 17.1227 50.1687 25.5065 44.4217 22.282M1 1V20.9922C12.494 19.7024 14.0265 14.6721 2.27711 10.0287C16.3253 5.62388 9.3012 1 1 1ZM27.1807 11.9635C27.1807 -2.22455 38.0361 -2.22455 36.1205 11.9635C34.3863 24.8071 27.1807 22.9269 27.1807 11.9635Z" stroke="black"/>
</svg>
